<svg xmlns="http://www.w3.org/2000/svg" viewBox="0 0 62.29 77.08"><defs><style>.cls-1{fill:#231f20;}.cls-2{fill:#ed1f24;}.cls-3{fill:none;stroke:#fff;stroke-width:3px;}</style></defs><title>Logo</title><g id="Layer_2" data-name="Layer 2"><g id="bike_king_borders_bottom" data-name="bike king borders bottom"><path class="cls-1" d="M1,62.27H5a10.61,10.61,0,0,1,2.83.28A2.79,2.79,0,0,1,9.36,63.7,5.06,5.06,0,0,1,10,66.48a2.91,2.91,0,0,1-.42,1.81,3,3,0,0,1-1.65.79,2.89,2.89,0,0,1,1.86,1,3.75,3.75,0,0,1,.49,2.15V73.6a5.39,5.39,0,0,1-.35,2.22,1.92,1.92,0,0,1-1.12,1,11.69,11.69,0,0,1-3.16.27H1ZM5,64.8v3.29h.4c.38,0,.63-.09.74-.27a4.65,4.65,0,0,0,.16-1.6,2.75,2.75,0,0,0-.13-1,.66.66,0,0,0-.35-.35A3.24,3.24,0,0,0,5,64.8Zm0,5.6v4.14a1.78,1.78,0,0,0,1.07-.25,1.81,1.81,0,0,0,.23-1.13V71.78c0-.63-.07-1-.21-1.15A1.86,1.86,0,0,0,5,70.4Z"/><path class="cls-1" d="M36.47,62.27,34.2,69l2.48,8.13H32.6L31,70.73v6.35H27V62.27h4V68l1.76-5.75Z"/><path class="cls-1" d="M52.75,62.27h4a10.66,10.66,0,0,1,2.83.28,2.77,2.77,0,0,1,1.55,1.15,5,5,0,0,1,.6,2.78,2.91,2.91,0,0,1-.42,1.81,3,3,0,0,1-1.65.79,3,3,0,0,1,1.86,1A3.75,3.75,0,0,1,62,72.23V73.6a5.39,5.39,0,0,1-.35,2.22,1.91,1.91,0,0,1-1.13,1,11.55,11.55,0,0,1-3.15.27H52.75Zm4,2.53v3.29h.39c.39,0,.64-.09.74-.27a4.4,4.4,0,0,0,.16-1.6,2.54,2.54,0,0,0-.13-1,.62.62,0,0,0-.34-.35A3.3,3.3,0,0,0,56.71,64.8Zm0,5.6v4.14a1.72,1.72,0,0,0,1.06-.25A1.74,1.74,0,0,0,58,73.16V71.78c0-.63-.06-1-.2-1.15A1.86,1.86,0,0,0,56.71,70.4Z"/></g><g id="red_rect" data-name="red rect"><rect class="cls-2" width="62.29" height="58.65"/></g><g id="gear_cog" data-name="gear cog"><path class="cls-3" d="M57.27,32c0-.52,0-1,0-1.57,0-.78,0-1.55-.1-2.3l-5.84-1.87a20,20,0,0,0-1.33-4.2l3.65-4.64a26.12,26.12,0,0,0-2.4-3.34l-5.69,1.53A21.1,21.1,0,0,0,42.4,13l.53-5.48A26.77,26.77,0,0,0,38.7,5.89L35,10a21.36,21.36,0,0,0-3.68-.38L28.82,4.85a26.75,26.75,0,0,0-4.76.81l-.92,5.49a19.89,19.89,0,0,0-2.92,1.46L15.33,9.78A25.92,25.92,0,0,0,11.67,13L14,18.39a21.47,21.47,0,0,0-1.54,2.52l-6.07.28a25.86,25.86,0,0,0-1.32,4.55l5.12,3.46c0,.42,0,.84,0,1.26s0,1.08.06,1.61l-5,3.59a25.54,25.54,0,0,0,1.4,4.5l6.05.14a21.44,21.44,0,0,0,1.63,2.57L12,48.33a27.18,27.18,0,0,0,3.68,3.08l4.8-2.93a20.19,20.19,0,0,0,3.08,1.46l1,5.46a26.9,26.9,0,0,0,4.7.69l2.34-4.82a21,21,0,0,0,3.83-.48l3.83,4a26.67,26.67,0,0,0,4.11-1.74l-.65-5.48A21.23,21.23,0,0,0,46,44.84l5.72,1.4A25.45,25.45,0,0,0,54,42.88l-3.77-4.57A20.6,20.6,0,0,0,51.49,34Z"/></g></g></svg>